<svg width="1440" height="500" viewBox="0 0 1440 500" fill="none" xmlns="http://www.w3.org/2000/svg">
<path fill-rule="evenodd" clip-rule="evenodd" d="M546.092 126H484.105V187.987H546.092V373.947H608.079L608.079 187.987H670.066V126H608.079H546.092Z" fill="#00020F"/>
<path fill-rule="evenodd" clip-rule="evenodd" d="M740.662 126H678.675V187.987H740.662V373.947H802.648L802.648 187.987H864.635V126H802.648H740.662Z" fill="#00020F"/>
<path fill-rule="evenodd" clip-rule="evenodd" d="M401.132 126C446.778 126 483.781 163.003 483.781 208.649C483.781 250.648 452.455 285.33 411.894 290.604L483.351 373.947H421.259L297.391 236.199H401.132V236.195C401.276 236.198 401.419 236.199 401.563 236.199C416.778 236.199 429.113 223.864 429.113 208.649C429.113 193.434 416.778 181.099 401.563 181.099C401.419 181.099 401.276 181.1 401.132 181.103V181.099H297.391V126H401.132Z" fill="#00020F"/>
<path d="M70 373.947L184.503 126L297.285 373.947H235.298L183.642 263.748L131.987 373.947H70Z" fill="#00020F"/>
<path fill-rule="evenodd" clip-rule="evenodd" d="M989.47 374.808C1057.94 374.808 1113.44 319.303 1113.44 250.834C1113.44 182.366 1057.94 126.861 989.47 126.861C921.001 126.861 865.496 182.366 865.496 250.834C865.496 319.303 921.001 374.808 989.47 374.808ZM990.331 311.96C1024.56 311.96 1052.32 284.208 1052.32 249.973C1052.32 215.739 1024.56 187.987 990.331 187.987C956.096 187.987 928.344 215.739 928.344 249.973C928.344 284.208 956.096 311.96 990.331 311.96Z" fill="#00020F"/>
<path fill-rule="evenodd" clip-rule="evenodd" d="M1246.03 374.808C1314.49 374.808 1370 319.303 1370 250.834C1370 182.366 1314.49 126.861 1246.03 126.861C1177.56 126.861 1122.05 182.366 1122.05 250.834C1122.05 319.303 1177.56 374.808 1246.03 374.808ZM1246.89 311.96C1281.12 311.96 1308.87 284.208 1308.87 249.974C1308.87 215.739 1281.12 187.987 1246.89 187.987C1212.65 187.987 1184.9 215.739 1184.9 249.974C1184.9 284.208 1212.65 311.96 1246.89 311.96Z" fill="#00020F"/>
</svg>
